<?xml version="1.0" encoding="utf-8"?>
<!-- Generator: Adobe Illustrator 25.2.0, SVG Export Plug-In . SVG Version: 6.00 Build 0)  -->
<svg version="1.1" id="Capa_1" xmlns="http://www.w3.org/2000/svg" xmlns:xlink="http://www.w3.org/1999/xlink" x="0px" y="0px"
	 viewBox="0 0 512 512" style="enable-background:new 0 0 512 512;" xml:space="preserve">
<g transform="translate(0.000000,1024.000000) scale(0.100000,-0.100000)">
	<path d="M2198,10159.2c-446.8-65-868.7-250.6-1216.2-531.9l-120.3-95.7l106.9-61.2l108.8-61.2l145.1,105.2
		c196.6,143.5,528.8,300.4,752.2,357.8c830.5,210.4,1649.5-24.9,2239.5-642.8c124.1-132,328.4-417.1,355.1-499.3
		c3.8-11.5,68.7-28.7,145.1-42.1c135.6-23,137.5-23,126,15.3c-61.1,199-341.7,596.9-568.9,811.2c-336,315.7-752.2,528-1223.8,625.6
		C2835.7,10184,2423.3,10193.6,2198,10159.2z"/>
	<path d="M1823.8,9575.7c5.7-36.3,28.6-208.5,51.5-382.6c21-174.1,45.8-319.5,55.4-325.2c61.1-38.3,628.1-485.9,622.4-491.7
		c-5.7-7.7-408.6,202.8-842,438.1c-301.7,164.5-1132.2,606.5-1284.9,683c-66.8,34.4-116.5,49.7-106.9,36.3
		c36.3-65,610.9-947,733.1-1124.9c74.5-111,166.1-248.7,204.3-306.1c57.3-89.9,101.2-126.3,290.2-241.1
		c122.2-74.6,339.8-210.4,483-302.3c145.1-89.9,271.1-164.5,282.6-164.5c9.5,0,19.1-7.7,19.1-19.1c0-9.6-131.7-334.8-294-721.3
		c-490.7-1174.7-603.3-1448.2-597.6-1452.1c7.6-7.7,463.9,308,536.5,371.1c38.2,32.5,84,61.2,101.2,61.2
		c45.8,0,387.6,229.6,387.6,260.2c0,67,40.1,614.1,47.7,650.5c5.7,26.8,38.2,51.7,99.3,74.6c51.5,19.1,192.8,76.5,315,128.2
		l225.3,95.7l211.9,248.7c229.1,269.8,236.7,281.2,351.3,698.3l53.5,193.2L3943,8158l173.7,172.2l246.3,21
		c137.5,11.5,337.9,15.3,448.7,9.6l202.4-9.6l-179.5,57.4c-162.3,51.7-528.8,114.8-672,114.8c-36.3,0-110.7,36.3-215.7,107.1
		l-158.5,105.2l-194.7-19.1c-108.8-11.5-208.1-26.8-221.5-34.4c-19.1-11.5-307.4-331-381.8-422.8c-3.8-3.8-252,288.9-553.7,650.5
		c-301.7,361.6-565.1,673.4-586.1,694.5C1814.3,9642.6,1814.3,9642.6,1823.8,9575.7z"/>
	<path d="M321.3,8797C-75.8,8005-16.6,7029.3,474,6287c137.5-208.5,465.8-537.6,664.4-667.7c82.1-55.5,160.4-99.5,171.8-99.5
		c19.1,0,95.5,187.5,82.1,200.9c-3.8,1.9-91.6,70.8-198.6,149.2c-586.1,440-905,1075.2-905,1800.3c0,353.9,61.1,639,200.5,941.3
		l61.1,135.8l-63,101.4c-34.4,53.6-66.8,103.3-72.5,109C411,8963.5,367.1,8890.8,321.3,8797z"/>
	<path d="M4802.2,8079.6c28.6-99.5,36.3-514.6,11.5-688.7c-114.6-855.2-712.1-1580.2-1523.5-1851.9
		c-286.4-95.7-471.6-120.5-815.2-111l-303.6,9.6l-78.3-59.3c-42-32.5-99.3-72.7-124.1-89.9l-47.7-30.6l105-23
		c332.2-72.7,700.7-72.7,1048.2-1.9c998.5,202.8,1788.9,1017.8,1958.8,2016.4c28.6,174.1,36.3,617.9,13.4,776.7l-13.4,86.1
		l-122.2,5.7C4792.6,8123.6,4790.7,8123.6,4802.2,8079.6z"/>
</g>
</svg>
