<?xml version="1.0" encoding="utf-8"?>
<!-- Generator: Adobe Illustrator 25.2.0, SVG Export Plug-In . SVG Version: 6.00 Build 0)  -->
<svg version="1.1" id="Capa_1" xmlns="http://www.w3.org/2000/svg" xmlns:xlink="http://www.w3.org/1999/xlink" x="0px" y="0px"
	 viewBox="0 0 512 114" style="enable-background:new 0 0 512 114;" xml:space="preserve">
<style type="text/css">
	.st0{fill:#544F9D;}
	.st1{fill:#46529F;}
	.st2{fill:#2670B7;}
	.st3{fill:#713D90;}
	.st4{fill:#2276BB;}
	.st5{fill:#236DB5;}
	.st6{fill:#2C69B2;}
	.st7{fill:#3D62AC;}
	.st8{fill:#525DA7;}
	.st9{fill:#5754A0;}
	.st10{fill:#624A98;}
	.st11{fill:#7C4494;}
	.st12{fill:#9E4091;}
	.st13{fill:#923D8F;}
</style>
<g transform="translate(0.000000,1024.000000) scale(0.100000,-0.100000)">
	<path class="st0" d="M483.7,10178.2c-93.9-13.6-182.6-52.6-255.7-111.6l-25.3-20.1l22.5-12.8l22.9-12.8l30.5,22.1
		c41.3,30.1,111.2,63,158.1,75.1c174.6,44.2,346.8-5.2,470.8-134.9c26.1-27.7,69-87.5,74.7-104.8c0.8-2.4,14.4-6,30.5-8.8
		c28.5-4.8,28.9-4.8,26.5,3.2c-12.8,41.7-71.8,125.2-119.6,170.2c-70.6,66.2-158.1,110.8-257.3,131.3
		C617.8,10183.5,531.1,10185.5,483.7,10178.2z"/>
	<path class="st1" d="M405.1,10055.8c1.2-7.6,6-43.8,10.8-80.3c4.4-36.5,9.6-67,11.6-68.2c12.8-8,132.1-102,130.9-103.2
		c-1.2-1.6-85.9,42.5-177,91.9c-63.4,34.5-238,127.2-270.1,143.3c-14,7.2-24.5,10.4-22.5,7.6c7.6-13.6,128.4-198.7,154.1-236
		c15.7-23.3,34.9-52.2,42.9-64.2c12-18.9,21.3-26.5,61-50.6c25.7-15.7,71.4-44.2,101.5-63.4c30.5-18.9,57-34.5,59.4-34.5
		c2,0,4-1.6,4-4c0-2-27.7-70.2-61.8-151.3c-103.2-246.4-126.8-303.8-125.6-304.7c1.6-1.6,97.5,64.6,112.8,77.9
		c8,6.8,17.7,12.8,21.3,12.8c9.6,0,81.5,48.2,81.5,54.6c0,14,8.4,128.8,10,136.5c1.2,5.6,8,10.8,20.9,15.7
		c10.8,4,40.5,16.1,66.2,26.9l47.4,20.1l44.6,52.2c48.2,56.6,49.8,59,73.9,146.5l11.2,40.5l36.5,36.5l36.5,36.1l51.8,4.4
		c28.9,2.4,71,3.2,94.3,2l42.5-2l-37.7,12c-34.1,10.8-111.2,24.1-141.3,24.1c-7.6,0-23.3,7.6-45.4,22.5l-33.3,22.1l-40.9-4
		c-22.9-2.4-43.8-5.6-46.6-7.2c-4-2.4-64.6-69.4-80.3-88.7c-0.8-0.8-53,60.6-116.4,136.5s-118.8,141.3-123.2,145.7
		C403.1,10069.9,403.1,10069.9,405.1,10055.8z"/>
	<path class="st2" d="M89.2,9892.5c-83.5-166.2-71-370.9,32.1-526.6c28.9-43.8,97.9-112.8,139.7-140.1
		c17.3-11.6,33.7-20.9,36.1-20.9c4,0,20.1,39.3,17.3,42.1c-0.8,0.4-19.3,14.9-41.7,31.3C149.4,9370.7,82.4,9503.9,82.4,9656
		c0,74.3,12.8,134.1,42.1,197.5l12.8,28.5l-13.2,21.3c-7.2,11.2-14,21.7-15.3,22.9C108,9927.4,98.8,9912.1,89.2,9892.5z"/>
	<path class="st3" d="M1031.2,9741.9c6-20.9,7.6-108,2.4-144.5c-24.1-179.4-149.7-331.5-320.3-388.5
		c-60.2-20.1-99.1-25.3-171.4-23.3l-63.8,2l-16.5-12.4c-8.8-6.8-20.9-15.3-26.1-18.9l-10-6.4l22.1-4.8
		c69.8-15.3,147.3-15.3,220.4-0.4c209.9,42.5,376.1,213.5,411.8,423.1c6,36.5,7.6,129.6,2.8,163l-2.8,18.1l-25.7,1.2
		C1029.2,9751.2,1028.8,9751.2,1031.2,9741.9z"/>
</g>
<g>
	<path d="M120.8,37.2c-2,1.8-2.9,4.3-2.9,7.4v39.6"/>
</g>
<g>
	<path class="st4" d="M129.8,44.1c0.7-0.6,1.7-0.9,2.9-0.9h17.9l0.6-7.9c-2.2-0.2-4.6-0.4-7.1-0.5c-2.6-0.1-5.2-0.2-7.8-0.2
		c-2.7,0-5.3,0-7.8,0c-3.2,0-5.8,0.9-7.8,2.8c-2,1.8-2.9,4.3-2.9,7.4v39.6h11v-21H148v-7.8h-19.2v-8.6
		C128.8,45.6,129.1,44.7,129.8,44.1z"/>
	<path class="st5" d="M167.9,34v38.9c0,1.2,0.4,2.1,1.1,2.7c0.7,0.6,1.8,0.9,3.2,0.9h2.9l1.2,7.2c-0.6,0.3-1.4,0.5-2.4,0.8
		c-1.1,0.2-2.1,0.4-3.2,0.5c-1.1,0.1-2,0.2-2.8,0.2c-3.2,0-5.7-0.8-7.6-2.5c-1.9-1.7-2.8-4-2.8-7V34H167.9z"/>
	<path class="st6" d="M204.1,48.8v24.6c-1.7,0.9-3.1,1.6-4.3,2c-1.5,0.6-2.9,0.8-4.4,0.8c-1.4,0-2.5-0.3-3.1-0.9
		c-0.6-0.6-1-1.7-1-3.2V48.8h-10.6v26.6c0,6.6,3.4,9.9,10.1,9.9c2.6,0,5.2-0.6,7.7-1.7c2.3-1,4.6-2.5,7-4.5l0.9,5.2h8.4V48.8H204.1z
		"/>
	<polygon class="st7" points="248.3,84.2 259.1,84.2 248,66.1 258.3,48.8 247.5,48.8 239.8,62.6 239.1,62.6 231.4,48.8 220.6,48.8 
		230.9,66.1 219.8,84.2 230.7,84.2 239.3,69.2 239.7,69.2 	"/>
	<path class="st8" d="M287.4,48.8v24.6c-1.7,0.9-3.1,1.6-4.3,2c-1.5,0.6-2.9,0.8-4.4,0.8c-1.4,0-2.5-0.3-3.1-0.9
		c-0.6-0.6-1-1.7-1-3.2V48.8h-10.6v26.6c0,6.6,3.4,9.9,10.1,9.9c2.6,0,5.2-0.6,7.7-1.7c2.3-1,4.6-2.5,7-4.5l0.9,5.2h8.4V48.8H287.4z
		"/>
	<path class="st9" d="M335.8,67.3c-1.4-1.5-3.6-2.6-6.6-3.4l-9.3-2.2c-1.7-0.4-2.9-0.8-3.6-1.2c-0.7-0.4-1.1-1.1-1.1-2.1
		c0-0.9,0.2-1.5,0.6-1.9c0.4-0.4,1.1-0.6,2.1-0.7c1-0.1,2.4-0.1,4.3-0.1c2.2,0,4.5,0,6.8,0c2.3,0,4.6,0.1,6.9,0.1l0.7-6.6
		c-1.5-0.3-3.2-0.5-5.1-0.7c-1.9-0.2-3.9-0.3-5.9-0.5c-2-0.1-3.9-0.2-5.6-0.2c-3.7,0-6.6,0.3-8.9,1c-2.2,0.7-3.8,1.7-4.8,3.2
		c-1,1.5-1.5,3.4-1.5,5.9c0,1.9,0.3,3.6,0.8,5c0.5,1.4,1.4,2.6,2.6,3.5c1.2,1,3,1.7,5.2,2.4l9,2.2c1.8,0.4,3.1,0.8,3.9,1.2
		c0.8,0.4,1.2,1.1,1.2,2.2c0,0.9-0.2,1.5-0.7,1.9s-1.4,0.7-2.7,0.8c-1.3,0.1-3.2,0.2-5.6,0.2c-1.6,0-3.2,0-4.7,0c-1.6,0-3,0-4.4,0
		c-1.3,0-2.4-0.1-3.3-0.1l-0.7,6.6c3.5,0.6,6.7,0.9,9.6,1.1c2.9,0.1,5.1,0.2,6.6,0.2c3.8,0,6.9-0.3,9.3-0.9c2.4-0.6,4.1-1.7,5.2-3.3
		c1.1-1.6,1.7-3.9,1.7-6.8C338,71,337.3,68.8,335.8,67.3z"/>
	<path class="st10" d="M371.8,34.7v37c0,1.2,0.3,2.1,1,2.7c0.7,0.6,1.6,0.9,2.9,0.9H393l0.5,8.3c-3.4,0.4-7,0.6-10.7,0.7
		c-3.7,0.1-7.4,0.1-11.1,0.1c-3.6,0-6.3-1-8.1-2.9c-1.8-1.9-2.8-4.4-2.8-7.4V34.7H371.8z"/>
	<path class="st11" d="M429.7,53c-1.1-1.9-2.6-3.2-4.7-4c-2.1-0.8-4.6-1.2-7.5-1.2c-1.8,0-3.8,0.1-6,0.3c-2.3,0.2-4.5,0.4-6.7,0.6
		c-2.2,0.2-4.2,0.5-6,0.9l1,7c2.9-0.2,5.7-0.3,8.4-0.5c2.7-0.1,5-0.2,6.8-0.2c2.2,0,3.7,0.4,4.5,1.1c0.8,0.8,1.2,2,1.2,3.7v1.7
		h-12.8c-3.4,0-6,0.8-7.9,2.4c-1.9,1.6-2.9,3.8-2.9,6.6V75c0,2.2,0.5,4,1.5,5.5c1,1.5,2.4,2.6,4.1,3.4c1.7,0.8,3.7,1.1,5.8,1.1
		c2.2,0,4.2-0.4,5.9-1.1c1.7-0.7,3.2-1.6,4.5-2.6c1.2-0.9,2.1-1.9,2.9-2.8l1.1,5.7h8.5V60.8C431.4,57.5,430.8,54.9,429.7,53z
		 M420.2,74.3c-1.4,1-2.9,1.7-4.3,2.2c-1.5,0.5-2.8,0.8-4.1,0.8c-1.5,0-2.6-0.3-3.2-1c-0.7-0.6-1-1.6-1-2.8v-1.7
		c0-1.1,0.3-1.9,0.8-2.5c0.5-0.6,1.5-0.9,2.8-0.9l9.5,0V74C420.5,74.1,420.3,74.2,420.2,74.3z"/>
	<path class="st12" d="M507.1,67.3c-1.4-1.5-3.6-2.6-6.6-3.4l-9.3-2.2c-1.7-0.4-2.9-0.8-3.6-1.2c-0.7-0.4-1.1-1.1-1.1-2.1
		c0-0.9,0.2-1.5,0.6-1.9c0.4-0.4,1.1-0.6,2.1-0.7c1-0.1,2.4-0.1,4.3-0.1c2.2,0,4.5,0,6.8,0c2.3,0,4.6,0.1,6.9,0.1l0.7-6.6
		c-1.5-0.3-3.2-0.5-5.1-0.7c-1.9-0.2-3.9-0.3-5.9-0.5c-2-0.1-3.9-0.2-5.6-0.2c-3.7,0-6.6,0.3-8.9,1c-2.2,0.7-3.8,1.7-4.8,3.2
		c-1,1.5-1.5,3.4-1.5,5.9c0,1.9,0.3,3.6,0.8,5c0.5,1.4,1.4,2.6,2.6,3.5c1.2,1,3,1.7,5.2,2.4l9,2.2c1.8,0.4,3.1,0.8,3.9,1.2
		c0.8,0.4,1.2,1.1,1.2,2.2c0,0.9-0.2,1.5-0.7,1.9c-0.5,0.4-1.4,0.7-2.7,0.8c-1.3,0.1-3.2,0.2-5.6,0.2c-1.6,0-3.2,0-4.7,0
		c-1.6,0-3,0-4.4,0c-1.3,0-2.4-0.1-3.3-0.1l-0.7,6.6c3.5,0.6,6.7,0.9,9.6,1.1c2.9,0.1,5.1,0.2,6.6,0.2c3.8,0,6.9-0.3,9.3-0.9
		c2.4-0.6,4.1-1.7,5.2-3.3c1.1-1.6,1.7-3.9,1.7-6.8C509.2,71,508.5,68.8,507.1,67.3z"/>
	<path class="st13" d="M468.9,52.1c-2-2.8-5.4-4.3-10.1-4.3c-1.7,0-3.4,0.3-5,0.9c-1.6,0.6-3.2,1.4-4.6,2.5c-1.1,0.8-2.1,1.6-3,2.6
		c0.3-1.2,0.5-2.4,0.7-3.6c0.2-1.5,0.3-3.1,0.3-4.7L447,34h-10.6v48.3c1.1,0.5,2.4,0.9,3.9,1.3c1.5,0.4,3.1,0.6,4.8,0.9
		c1.7,0.2,3.4,0.4,5,0.5c1.6,0.1,3.1,0.2,4.3,0.2c3.6,0,6.5-0.5,8.8-1.4c2.2-0.9,4-2.2,5.3-3.9c1.3-1.7,2.2-3.7,2.7-6
		c0.5-2.3,0.8-4.8,0.8-7.5C471.9,59.7,470.9,55,468.9,52.1z M460.3,73c-0.4,1.6-1.1,2.7-2.1,3.4c-1,0.6-2.3,1-3.9,1
		c-0.9,0-1.9,0-3,0c-1.1-0.1-2.3-0.2-3.4-0.4c-0.3-0.1-0.6-0.1-0.9-0.2l0-17.6c1.2-0.8,2.3-1.4,3.3-2c1.3-0.7,2.7-1,4.3-1
		c1.7,0,3,0.3,3.9,0.9c0.9,0.6,1.6,1.6,1.9,3.1c0.4,1.5,0.5,3.5,0.5,6.1C461,69.2,460.7,71.4,460.3,73z"/>
</g>
</svg>
